HIERARCHY
ROOT Hips
{
	OFFSET 0.00000 0.00000 0.00000
	CHANNELS 6 Xposition Yposition Zposition Zrotation Yrotation Xrotation 
	JOINT LHipJoint
	{
		OFFSET 0 0 0
		CHANNELS 3 Zrotation Yrotation Xrotation
		JOINT LeftHip
		{
			OFFSET 1.75344 -1.53157 0.77399
			CHANNELS 3 Zrotation Yrotation Xrotation
			JOINT LeftKnee
			{
				OFFSET 2.25415 -6.19323 0.00000
				CHANNELS 3 Zrotation Yrotation Xrotation
				JOINT LeftAnkle
				{
					OFFSET 2.30342 -6.32861 0.00000
					CHANNELS 3 Zrotation Yrotation Xrotation
					JOINT LeftToe
					{
						OFFSET 0.10958 -0.30108 1.49206
						CHANNELS 3 Zrotation Yrotation Xrotation
						End Site
						{
							OFFSET 0.00000 -0.00000 0.77783
						}
					}
				}
			}
		}
	}
	JOINT RHipJoint
	{
		OFFSET 0 0 0
		CHANNELS 3 Zrotation Yrotation Xrotation
		JOINT RightHip
		{
			OFFSET -1.81912 -1.53156 0.77399
			CHANNELS 3 Zrotation Yrotation Xrotation
			JOINT RightKnee
			{
				OFFSET -2.22882 -6.12365 0.00000
				CHANNELS 3 Zrotation Yrotation Xrotation
				JOINT RightAnkle
				{
					OFFSET -2.21943 -6.09785 0.00000
					CHANNELS 3 Zrotation Yrotation Xrotation
					JOINT RightToe
					{
						OFFSET -0.18931 -0.52012 1.59379
						CHANNELS 3 Zrotation Yrotation Xrotation
						End Site
						{
							OFFSET -0.00000 -0.00000 0.84686
						}
					}
				}
			}
		}
	}
	JOINT lowerback
	{
		OFFSET 0 0 0
		CHANNELS 3 Zrotation Yrotation Xrotation
		JOINT Chest
		{
			OFFSET -0.00200 1.66634 -0.14248
			CHANNELS 3 Zrotation Yrotation Xrotation
			JOINT Chest2
			{
				OFFSET -0.00875 1.64542 0.09514
				CHANNELS 3 Zrotation Yrotation Xrotation
				JOINT lowerneck
				{
					OFFSET 0 0 0
					CHANNELS 3 Zrotation Yrotation Xrotation
					JOINT Neck
					{
						OFFSET 0.02257 1.59605 0.00839
						CHANNELS 3 Zrotation Yrotation Xrotation
						JOINT Head
						{
							OFFSET -0.10214 1.57530 -0.23335
							CHANNELS 3 Zrotation Yrotation Xrotation
							End Site
							{
								OFFSET -0.03588 1.60717 -0.08062
							}
						}
					}
				}
				JOINT LeftCollar
				{
					OFFSET 0 0 0
					CHANNELS 3 Zrotation Yrotation Xrotation
					JOINT LeftShoulder
					{
						OFFSET 2.54983 1.10186 0.40078
CHANNELS 3 Zrotation Xrotation Yrotation
						JOINT LeftElbow
						{
OFFSET 0 -4.288400 0.000000
CHANNELS 3 Zrotation Xrotation Yrotation
							JOINT LeftWrist
							{
OFFSET 0 -3.065520 -0.000000
CHANNELS 3 Zrotation Xrotation Yrotation
								JOINT lhand
								{
									OFFSET 0 0 0
CHANNELS 3 Zrotation Xrotation Yrotation
									JOINT LFingers
									{
OFFSET 0 -0.753040 0.000000
CHANNELS 3 Zrotation Xrotation Yrotation
										End Site
										{
OFFSET 0 -0.607120 0.000000
										}
									}
								}
								JOINT LThumb
								{
OFFSET 0 0.000000 0.000000
CHANNELS 3 Zrotation Xrotation Yrotation
									End Site
									{
OFFSET 0 -0.616390 0.616390
									}
								}
							}
						}
					}
				}
				JOINT RightCollar
				{
					OFFSET 0 0 0
					CHANNELS 3 Zrotation Yrotation Xrotation
					JOINT RightShoulder
					{
						OFFSET -2.60909 1.35448 0.21802
CHANNELS 3 Zrotation Xrotation Yrotation
						JOINT RightElbow
						{
OFFSET 0 -4.521720 -0.000000
CHANNELS 3 Zrotation Xrotation Yrotation
							JOINT RightWrist
							{
OFFSET 0 -2.891400 0.000000
CHANNELS 3 Zrotation Xrotation Yrotation
								JOINT rhand
								{
									OFFSET 0 0 0
CHANNELS 3 Zrotation Xrotation Yrotation
									JOINT RFingers
									{
OFFSET 0 -0.680540 0.000000
CHANNELS 3 Zrotation Xrotation Yrotation
										End Site
										{
OFFSET 0 -0.548670 0.000000
										}
									}
								}
								JOINT RThumb
								{
OFFSET 0 0.000000 0.000000
CHANNELS 3 Zrotation Xrotation Yrotation
									End Site
									{
OFFSET 0 -0.557050 0.557050
									}
								}
							}
						}
					}
				}
			}
		}
	}
}
MOTION
Frames: 9
Frame Time: 0.008333333333333333
9.645895 15.642352 -4.418089 -178.468397 -9.980477 179.186940 0.000000 0.000000 0.000000 -18.824612 -1.581420 6.680304 6.083116 14.504401 45.306812 0.668129 -0.681995 15.693538 0.105919 -2.075373 -5.714845 0.000000 0.000000 0.000000 29.019149 23.662253 0.211138 -0.511891 -4.584906 12.728424 2.652568 -29.165496 -22.633663 -0.922026 -6.115717 17.121207 -0.642724 0.169802 5.031792 0.079492 0.000841 -5.483009 0.455446 -0.030060 -8.597203 -9.272518 -4.938767 -9.286628 8.846323 -8.098928 20.257516 3.624640 -4.093777 8.544871 0.000000 0.000000 0.000000 6.145537 20.089301 -31.764478 20.544974 -31.293295 5.811779 -1.367203 19.946091 32.928017 0.000000 0.000000 0.000000 -7.125000 0.000000 0.000000 -18.523983 -1.496146 -20.070128 0.000000 0.000000 0.000000 -8.765933 16.950878 35.649255 -18.993436 -29.410215 -5.027732 5.372065 9.450912 55.164656 0.000000 0.000000 0.000000 7.125000 0.000000 0.000000 81.220912 70.022080 -59.646647
9.676380 15.648459 -4.595816 -178.180554 -10.289214 179.053033 0.000000 0.000000 0.000000 -18.075176 -1.946415 4.746709 6.923231 15.263396 48.577198 0.841012 0.177891 17.274504 0.017307 -0.839057 -2.306027 0.000000 0.000000 0.000000 29.843520 22.855263 1.347914 -0.436718 -4.239438 11.751470 2.981504 -29.857662 -20.452147 -0.510539 -4.466806 12.410670 -0.400005 0.151899 5.050607 0.131440 0.013521 -5.359315 0.371588 -0.033191 -8.473160 -9.226811 -5.031426 -9.128680 8.731366 -8.204248 20.120281 3.568674 -4.150988 8.473890 0.000000 0.000000 0.000000 6.640114 19.916631 -31.703366 20.850138 -31.652638 5.971275 0.347908 16.943905 33.053155 0.000000 0.000000 0.000000 -7.125000 0.000000 0.000000 -17.604870 -1.742131 -19.043500 0.000000 0.000000 0.000000 -9.026275 16.572696 36.315736 -19.204738 -29.672262 -5.131860 4.302472 10.156464 54.638919 0.000000 0.000000 0.000000 7.125000 0.000000 0.000000 79.320122 70.275135 -58.091884
9.707406 15.652333 -4.767267 -177.524070 -10.527373 178.960289 0.000000 0.000000 0.000000 -16.920839 -2.316942 2.558663 7.817877 15.979538 51.897160 0.857342 0.284635 17.407543 0.041686 -1.245638 -3.425728 0.000000 0.000000 0.000000 30.989429 21.999837 2.311354 -0.363169 -3.869306 10.709551 3.219233 -30.313095 -18.244436 -0.166327 -2.627105 7.242319 0.307403 0.202814 5.079001 0.213770 0.151324 -5.382700 0.044740 -0.007099 -8.513775 -9.543353 -5.112716 -8.945069 9.067474 -8.400315 20.252054 3.717352 -4.253811 8.532233 0.000000 0.000000 0.000000 7.269879 20.143822 -31.740503 21.339850 -32.222506 6.230348 2.093615 13.911337 33.157015 0.000000 0.000000 0.000000 -7.125000 0.000000 0.000000 -16.664370 -1.989580 -18.002097 0.000000 0.000000 0.000000 -9.191666 16.353933 36.834658 -19.379444 -29.887418 -5.218647 2.385154 11.362930 54.030693 0.000000 0.000000 0.000000 7.125000 0.000000 0.000000 76.755953 70.790890 -56.246193
9.732084 15.649044 -4.938002 -177.110793 -10.742075 178.756172 0.000000 0.000000 0.000000 -16.151491 -2.676565 0.556549 8.719080 16.621249 55.110082 0.745279 -0.106832 16.352524 0.113366 -2.167646 -5.969311 0.000000 0.000000 0.000000 31.936803 21.218873 3.621009 -0.291840 -3.473004 9.598636 2.996348 -29.841052 -20.190872 -0.577670 -4.854435 13.496467 0.871965 0.288056 5.271244 0.226073 0.324372 -5.369604 -0.281172 0.044350 -8.609701 -9.770231 -5.190983 -8.784767 9.277928 -8.557806 20.313283 3.812541 -4.337354 8.558793 0.000000 0.000000 0.000000 7.785865 20.089792 -31.614731 21.591578 -32.512334 6.364969 4.207832 10.931435 33.058843 0.000000 0.000000 0.000000 -7.125000 0.000000 0.000000 -15.513687 -2.101619 -16.686577 0.000000 0.000000 0.000000 -9.363395 15.926092 36.974818 -19.402442 -29.915600 -5.230065 3.202168 10.914544 54.005075 0.000000 0.000000 0.000000 7.125000 0.000000 0.000000 77.084898 70.503136 -56.205676
9.753613 15.640510 -5.102533 -176.849464 -10.825786 178.636222 0.000000 0.000000 0.000000 -15.619656 -3.008723 -1.454244 9.578690 17.163065 58.066556 0.578059 -0.502503 14.527716 0.146798 -2.437759 -6.718513 0.000000 0.000000 0.000000 32.616602 20.394502 4.574794 -0.245310 -3.186223 8.797742 2.967292 -29.691152 -19.965581 -0.583353 -4.860057 13.515936 1.168874 0.355939 5.326226 0.263454 0.452021 -5.301450 -0.424933 0.092401 -8.564845 -9.268404 -5.291261 -8.575247 8.556345 -8.622193 20.240609 3.480331 -4.395216 8.448831 0.000000 0.000000 0.000000 7.836668 19.545408 -30.397369 21.619070 -32.543647 6.379728 5.175995 8.461631 33.116149 0.000000 0.000000 0.000000 -7.125000 0.000000 0.000000 -14.987212 -2.258742 -16.118681 0.000000 0.000000 0.000000 -9.566306 15.249413 37.239716 -19.277360 -29.761899 -5.167828 2.712441 11.327425 53.757267 0.000000 0.000000 0.000000 7.125000 0.000000 0.000000 76.164253 70.607942 -55.455901
9.776823 15.635540 -5.266369 -176.674346 -10.830494 178.613538 0.000000 0.000000 0.000000 -15.233064 -3.428228 -3.552676 10.379629 17.616764 60.748282 0.402693 -1.133239 12.443737 0.173354 -2.677650 -7.382911 0.000000 0.000000 0.000000 33.207715 19.742421 5.287229 -0.222745 -3.038292 8.385346 3.028803 -29.732667 -18.996504 -0.406726 -4.063617 11.260257 1.358677 0.474039 5.307897 0.277566 0.630264 -5.281283 -0.538847 0.169143 -8.527663 -9.611973 -5.216519 -7.874301 9.111669 -8.603600 19.744547 3.744382 -4.386360 8.190838 0.000000 0.000000 0.000000 7.948889 19.162285 -29.304469 21.838611 -32.794061 6.498213 6.239411 5.978430 33.526163 0.000000 0.000000 0.000000 -7.125000 0.000000 0.000000 -14.425210 -2.774969 -15.599909 0.000000 0.000000 0.000000 -9.763647 14.704521 37.452337 -19.275103 -29.759071 -5.166699 1.505474 12.242481 53.871155 0.000000 0.000000 0.000000 7.125000 0.000000 0.000000 75.888411 71.054441 -55.741513
9.796236 15.629098 -5.425625 -176.572923 -10.734942 178.604659 0.000000 0.000000 0.000000 -14.976040 -3.819626 -5.657285 11.103935 17.983782 63.116480 0.232987 -2.460615 10.331946 0.402625 -4.004382 -11.098004 0.000000 0.000000 0.000000 33.692948 19.232770 5.895680 -0.215201 -2.986609 8.241434 2.645630 -28.739048 -21.120975 -0.798255 -5.692699 15.897992 1.569979 0.633529 5.447128 0.246948 0.865299 -5.315873 -0.720900 0.268454 -8.639522 -9.542764 -5.339732 -8.076541 8.855904 -8.795535 20.252368 3.619728 -4.499015 8.403787 0.000000 0.000000 0.000000 8.091756 19.018068 -28.181273 21.931506 -32.899533 6.548610 7.884443 4.328508 33.553826 0.000000 0.000000 0.000000 -7.125000 0.000000 0.000000 -13.527275 -3.002191 -14.622546 0.000000 0.000000 0.000000 -9.917042 14.073885 37.622639 -19.087197 -29.526727 -5.073816 1.239973 12.142303 54.550511 0.000000 0.000000 0.000000 7.125000 0.000000 0.000000 77.692660 71.310790 -57.783537
9.810438 15.620345 -5.579125 -176.582088 -10.454517 178.584651 0.000000 0.000000 0.000000 -14.910625 -4.038321 -7.701280 11.738307 18.277507 65.156656 0.079882 -3.590771 7.842941 0.878309 -5.972001 -16.704057 0.000000 0.000000 0.000000 34.061907 18.926213 6.451013 -0.221035 -3.026473 8.352473 2.428919 -28.134710 -22.012933 -0.636480 -5.098613 14.191259 1.683917 0.820288 5.484474 0.202869 1.129257 -5.254468 -0.865296 0.391927 -8.585837 -9.716642 -5.379487 -7.587102 9.110668 -8.875864 19.827681 3.738195 -4.539170 8.199192 0.000000 0.000000 0.000000 7.930361 18.265475 -26.302857 21.488234 -32.393395 6.309657 8.953942 3.187202 34.338901 0.000000 0.000000 0.000000 -7.125000 0.000000 0.000000 -12.997831 -3.904943 -14.212963 0.000000 0.000000 0.000000 -9.979758 13.316808 37.412519 -18.767261 -29.128338 -4.917118 1.111110 12.825770 54.491732 0.000000 0.000000 0.000000 7.125000 0.000000 0.000000 77.465704 71.342635 -57.602989
9.826513 15.613121 -5.736681 -176.739922 -10.104417 178.467659 0.000000 0.000000 0.000000 -15.085029 -4.251380 -9.540629 12.239395 18.489293 66.744858 -0.003669 -4.079076 5.594824 1.130056 -6.747537 -18.971180 0.000000 0.000000 0.000000 34.361444 18.637537 7.077226 -0.239835 -3.151033 8.699642 2.289578 -27.703120 -22.407871 -0.402695 -4.064254 11.258869 1.609097 1.030267 5.643172 0.116779 1.408298 -5.190897 -0.952891 0.533222 -8.602188 -9.617799 -5.420572 -7.168967 8.930211 -8.948715 19.718927 3.663641 -4.598096 8.081404 0.000000 0.000000 0.000000 7.662598 17.546105 -23.937278 21.042618 -31.878050 6.072438 9.634265 2.655066 34.854816 0.000000 0.000000 0.000000 -7.125000 0.000000 0.000000 -12.668750 -4.500836 -13.958231 0.000000 0.000000 0.000000 -9.949499 12.655218 37.079871 -18.396951 -28.662252 -4.738245 0.268228 14.427652 54.390366 0.000000 0.000000 0.000000 7.125000 0.000000 0.000000 76.795879 71.613448 -57.287407
